<?xml version="1.0" encoding="UTF-8"?><svg id="Layer_1" xmlns="http://www.w3.org/2000/svg" viewBox="0 0 1920 919"><defs><style>.cls-1{fill:#f7f5f4;}</style></defs><rect class="cls-1" x="268" y="517.61" width="271" height="100.39"/><rect class="cls-1" x="353.15" y="437.85" width="185.85" height="180.15"/><rect class="cls-1" x="441.62" y="346.7" width="97.38" height="103.19"/><path class="cls-1" d="M799.32,539.17c0,55.13-45.32,80.81-110.27,80.81h-97.05V348.08h90.25c59.67,0,106.87,24.17,106.87,77.42,0,26.81-16.24,44.18-34.74,51.74,23.04,6.8,44.94,30.59,44.94,61.93Zm-113.67-80.06c7.55,0,14.73-.76,20.77-3.78,7.93-3.4,13.22-11.71,13.22-23.41,0-20.01-14.35-28.7-33.23-28.7h-28.7v55.89h27.94Zm-27.94,105.74h35.12c18.5,0,35.12-9.06,35.12-30.21s-15.86-30.59-33.61-30.59h-36.63v60.8Z"/><path class="cls-1" d="M1172.73,498.19l-17.51-14.53v136.31h-64.8V348.1h1.49l130.73,118.81,130.73-118.81h1.86v271.88h-65.55v-136.31l-17.13,14.53c-16.76,16.01-33.15,32.03-49.91,47.67-16.76-15.64-33.15-31.66-49.91-47.67Z"/><path class="cls-1" d="M1530.39,344.02h3.4l135.34,275.96h-72.2l-19.28-41.58h-91.48l-18.9,41.58h-72.2l135.34-275.96Zm27.6,187.88c-9.45-21.55-20.41-48.39-25.71-65.02-3.78,9.07-18.52,47.63-26.08,65.02h51.79Z"/><polygon class="cls-1" points="921.29 561.83 921.29 509.71 1014.56 509.71 1014.56 454.58 921.29 454.58 852.18 454.55 852.18 619.98 1036.09 619.98 1036.09 561.83 921.29 561.83"/><polygon class="cls-1" points="852.18 355.43 852.18 413.74 921.29 413.59 1030.42 413.59 1030.42 355.43 852.18 355.43"/></svg>